<?xml version="1.0" standalone="no"?>
<!DOCTYPE svg PUBLIC "-//W3C//DTD SVG 20010904//EN"
 "http://www.w3.org/TR/2001/REC-SVG-20010904/DTD/svg10.dtd">
<svg version="1.0" xmlns="http://www.w3.org/2000/svg"
 width="1479.000000pt" height="1479.000000pt" viewBox="0 0 1479.000000 1479.000000"
 preserveAspectRatio="xMidYMid meet">
<metadata>
Created by potrace 1.14, written by Peter Selinger 2001-2017
</metadata>
<g transform="translate(0.000000,1479.000000) scale(0.100000,-0.100000)"
fill="#000000" stroke="none">
<path d="M7263 13603 c-64 -87 -234 -315 -378 -508 -144 -192 -334 -448 -424
-567 -108 -146 -169 -219 -184 -222 -12 -3 -83 -12 -157 -21 -834 -98 -1777
-351 -2541 -681 -596 -257 -1254 -655 -1706 -1032 -532 -443 -942 -924 -1237
-1453 -628 -1126 -656 -2418 -76 -3554 212 -416 435 -729 801 -1125 309 -334
844 -760 1292 -1029 l87 -53 -33 -46 c-19 -26 -93 -129 -165 -229 -72 -99
-180 -248 -240 -330 -60 -81 -185 -254 -279 -383 -93 -129 -269 -371 -390
-537 -121 -165 -224 -307 -229 -315 -4 -7 81 70 191 172 109 102 291 271 405
375 113 105 300 278 415 385 115 107 268 249 339 314 72 66 190 175 263 243
73 68 135 123 139 123 3 0 72 -32 153 -71 640 -311 1312 -531 2101 -689 678
-135 1256 -192 1975 -192 869 0 1613 91 2445 297 595 148 1047 308 1592 565
l196 92 374 -343 c205 -188 445 -411 533 -494 88 -83 214 -200 280 -260 180
-164 379 -349 479 -444 49 -47 85 -79 80 -71 -4 8 -105 148 -223 310 -118 162
-314 432 -436 600 -122 168 -289 397 -371 510 -203 278 -294 407 -294 417 1 4
60 44 132 88 73 44 201 128 286 188 696 485 1220 1025 1590 1636 490 811 672
1678 536 2561 -161 1042 -778 2021 -1779 2819 -317 253 -725 514 -1165 744
-720 377 -1733 701 -2630 842 -211 34 -446 65 -488 65 -23 0 -41 8 -57 26 -14
15 -259 341 -546 725 -287 385 -525 702 -530 705 -5 3 -61 -66 -126 -153z"/>
</g>
</svg>
